<?xml version="1.0" encoding="UTF-8" standalone="no"?>
<!DOCTYPE svg PUBLIC "-//W3C//DTD SVG 1.0//EN" "http://www.w3.org/TR/2001/PR-SVG-20010719/DTD/svg10.dtd">
<svg width="38cm" height="93cm" viewBox="400 -920 760 1860" xmlns="http://www.w3.org/2000/svg" xmlns:xlink="http://www.w3.org/1999/xlink">
  <defs/>
  <g id="Background">
    <rect style="fill: #ffffff; fill-opacity: 1; stroke-opacity: 1; stroke-width: 2.35099e-37; stroke: #ffffff" x="400" y="-920" width="760" height="1860" rx="0" ry="0"/>
    <rect style="fill: none; stroke-opacity: 1; stroke-width: 2; stroke-dasharray: 4; stroke: #000000" x="480" y="-900" width="660" height="440" rx="0" ry="0"/>
    <rect style="fill: none; stroke-opacity: 1; stroke-width: 2; stroke-dasharray: 4; stroke: #000000" x="480" y="-440" width="660" height="440" rx="0" ry="0"/>
    <rect style="fill: none; stroke-opacity: 1; stroke-width: 2; stroke-dasharray: 4; stroke: #000000" x="480" y="20" width="660" height="440" rx="0" ry="0"/>
    <rect style="fill: none; stroke-opacity: 1; stroke-width: 2; stroke-dasharray: 4; stroke: #000000" x="480" y="480" width="660" height="440" rx="0" ry="0"/>
    <text font-size="16.9333" style="fill: #000000; fill-opacity: 1; stroke: none;text-anchor:end;font-family:sans-serif;font-style:normal;font-weight:normal" x="474" y="-674.125">
      <tspan x="474" y="-674.125">Lane 1</tspan>
    </text>
    <text font-size="16.9333" style="fill: #000000; fill-opacity: 1; stroke: none;text-anchor:end;font-family:sans-serif;font-style:normal;font-weight:normal" x="474" y="-214.125">
      <tspan x="474" y="-214.125">Lane 2</tspan>
    </text>
    <text font-size="16.9333" style="fill: #000000; fill-opacity: 1; stroke: none;text-anchor:end;font-family:sans-serif;font-style:normal;font-weight:normal" x="474" y="245.875">
      <tspan x="474" y="245.875">Lane 3</tspan>
    </text>
    <text font-size="16.9333" style="fill: #000000; fill-opacity: 1; stroke: none;text-anchor:end;font-family:sans-serif;font-style:normal;font-weight:normal" x="474" y="705.875">
      <tspan x="474" y="705.875">Lane 4</tspan>
    </text>
  </g>
  <g id="Foregound">
    <ellipse style="fill: #000000; fill-opacity: 1; stroke-opacity: 1; stroke-width: 6; stroke: #000000" cx="900" cy="320" rx="5" ry="5"/>
    <polyline style="fill: none; stroke-opacity: 1; stroke-width: 4; stroke: #000000" points="780,320 800,320 800,320 900,320 "/>
    <ellipse style="fill: #000000; fill-opacity: 1; stroke-opacity: 1; stroke-width: 6; stroke: #000000" cx="940" cy="400" rx="5" ry="5"/>
    <polyline style="fill: none; stroke-opacity: 1; stroke-width: 4; stroke: #000000" points="780,400 840,400 840,400 940,400 "/>
    <g>
      <polygon style="fill: none; stroke-opacity: 1; stroke-width: 2; stroke: #000000" points="580,300 640,340 640,380 580,420 580,380 595,360 580,340 "/>
      <text font-size="12.8" style="fill: #000000; fill-opacity: 1; stroke: none;text-anchor:middle;font-family:sans-serif;font-style:normal;font-weight:normal" x="617.5" y="364">
        <tspan x="617.5" y="364">ALU</tspan>
      </text>
    </g>
    <g>
      <polygon style="fill: none; stroke-opacity: 1; stroke-width: 2; stroke: #000000" points="700,280 780,280 780,440 700,440 "/>
      <line style="fill: none; stroke-opacity: 1; stroke-width: 2; stroke: #000000" x1="724" y1="440" x2="740" y2="408"/>
      <line style="fill: none; stroke-opacity: 1; stroke-width: 2; stroke: #000000" x1="740" y1="408" x2="756" y2="440"/>
      <text font-size="12.8" style="fill: #000000; fill-opacity: 1; stroke: none;text-anchor:middle;font-family:sans-serif;font-style:normal;font-weight:normal" x="740" y="332">
        <tspan x="740" y="332">Register</tspan>
        <tspan x="740" y="348">File</tspan>
        <tspan x="740" y="364">R0x80-B0</tspan>
      </text>
    </g>
    <line style="fill: none; stroke-opacity: 1; stroke-width: 4; stroke: #000000" x1="640" y1="360" x2="700" y2="360"/>
    <g>
      <polygon style="fill: none; stroke-opacity: 1; stroke-width: 2; stroke: #000000" points="780,160 720,185 720,235 780,260 "/>
      <text font-size="12.8" style="fill: #000000; fill-opacity: 1; stroke: none;text-anchor:middle;font-family:sans-serif;font-style:normal;font-weight:normal" x="750" y="214">
        <tspan x="750" y="214">Src 1</tspan>
      </text>
    </g>
    <g>
      <polygon style="fill: none; stroke-opacity: 1; stroke-width: 2; stroke: #000000" points="780,40 720,65 720,115 780,140 "/>
      <text font-size="12.8" style="fill: #000000; fill-opacity: 1; stroke: none;text-anchor:middle;font-family:sans-serif;font-style:normal;font-weight:normal" x="750" y="94">
        <tspan x="750" y="94">Src 2</tspan>
      </text>
    </g>
    <polyline style="fill: none; stroke-opacity: 1; stroke-width: 4; stroke: #000000" points="720,90 520,90 520,400 580,400 "/>
    <polyline style="fill: none; stroke-opacity: 1; stroke-width: 4; stroke: #000000" points="580,320 560,320 560,210 720,210 "/>
    <ellipse style="fill: #000000; fill-opacity: 1; stroke-opacity: 1; stroke-width: 6; stroke: #000000" cx="900" cy="220" rx="5" ry="5"/>
    <line style="fill: none; stroke-opacity: 1; stroke-width: 4; stroke: #000000" x1="900" y1="220" x2="900" y2="320"/>
    <ellipse style="fill: #000000; fill-opacity: 1; stroke-opacity: 1; stroke-width: 6; stroke: #000000" cx="940" cy="100" rx="5" ry="5"/>
    <polyline style="fill: none; stroke-opacity: 1; stroke-width: 4; stroke: #000000" points="940,100 940,400 940,400 "/>
    <line style="fill: none; stroke-opacity: 1; stroke-width: 4; stroke: #000000" x1="940" y1="100" x2="780" y2="100"/>
    <line style="fill: none; stroke-opacity: 1; stroke-width: 4; stroke: #000000" x1="900" y1="220" x2="780" y2="220"/>
    <g>
      <polygon style="fill: none; stroke-opacity: 1; stroke-width: 2; stroke: #000000" points="580,760 640,800 640,840 580,880 580,840 595,820 580,800 "/>
      <text font-size="12.8" style="fill: #000000; fill-opacity: 1; stroke: none;text-anchor:middle;font-family:sans-serif;font-style:normal;font-weight:normal" x="617.5" y="824">
        <tspan x="617.5" y="824">ALU</tspan>
      </text>
    </g>
    <g>
      <polygon style="fill: none; stroke-opacity: 1; stroke-width: 2; stroke: #000000" points="700,740 780,740 780,900 700,900 "/>
      <line style="fill: none; stroke-opacity: 1; stroke-width: 2; stroke: #000000" x1="724" y1="900" x2="740" y2="868"/>
      <line style="fill: none; stroke-opacity: 1; stroke-width: 2; stroke: #000000" x1="740" y1="868" x2="756" y2="900"/>
      <text font-size="12.8" style="fill: #000000; fill-opacity: 1; stroke: none;text-anchor:middle;font-family:sans-serif;font-style:normal;font-weight:normal" x="740" y="792">
        <tspan x="740" y="792">Register</tspan>
        <tspan x="740" y="808">File</tspan>
        <tspan x="740" y="824">R0xC0-F0</tspan>
      </text>
    </g>
    <line style="fill: none; stroke-opacity: 1; stroke-width: 4; stroke: #000000" x1="640" y1="820" x2="700" y2="820"/>
    <g>
      <polygon style="fill: none; stroke-opacity: 1; stroke-width: 2; stroke: #000000" points="780,620 720,645 720,695 780,720 "/>
      <text font-size="12.8" style="fill: #000000; fill-opacity: 1; stroke: none;text-anchor:middle;font-family:sans-serif;font-style:normal;font-weight:normal" x="750" y="674">
        <tspan x="750" y="674">Src 1</tspan>
      </text>
    </g>
    <g>
      <polygon style="fill: none; stroke-opacity: 1; stroke-width: 2; stroke: #000000" points="780,500 720,525 720,575 780,600 "/>
      <text font-size="12.8" style="fill: #000000; fill-opacity: 1; stroke: none;text-anchor:middle;font-family:sans-serif;font-style:normal;font-weight:normal" x="750" y="554">
        <tspan x="750" y="554">Src 2</tspan>
      </text>
    </g>
    <polyline style="fill: none; stroke-opacity: 1; stroke-width: 4; stroke: #000000" points="720,550 520,550 520,860 580,860 "/>
    <polyline style="fill: none; stroke-opacity: 1; stroke-width: 4; stroke: #000000" points="580,780 560,780 560,670 720,670 "/>
    <ellipse style="fill: #000000; fill-opacity: 1; stroke-opacity: 1; stroke-width: 6; stroke: #000000" cx="820" cy="240" rx="5" ry="5"/>
    <line style="fill: none; stroke-opacity: 1; stroke-width: 4; stroke: #000000" x1="820" y1="240" x2="820" y2="700"/>
    <ellipse style="fill: #000000; fill-opacity: 1; stroke-opacity: 1; stroke-width: 6; stroke: #000000" cx="860" cy="120" rx="5" ry="5"/>
    <polyline style="fill: none; stroke-opacity: 1; stroke-width: 4; stroke: #000000" points="860,120 860,580 860,580 "/>
    <line style="fill: none; stroke-opacity: 1; stroke-width: 4; stroke: #000000" x1="860" y1="120" x2="780" y2="120"/>
    <line style="fill: none; stroke-opacity: 1; stroke-width: 4; stroke: #000000" x1="820" y1="240" x2="780" y2="240"/>
    <ellipse style="fill: #000000; fill-opacity: 1; stroke-opacity: 1; stroke-width: 6; stroke: #000000" cx="980" cy="200" rx="5" ry="5"/>
    <polyline style="fill: none; stroke-opacity: 1; stroke-width: 4; stroke: #000000" points="980,200 980,660 780,660 780,660 "/>
    <ellipse style="fill: #000000; fill-opacity: 1; stroke-opacity: 1; stroke-width: 6; stroke: #000000" cx="1020" cy="80" rx="5" ry="5"/>
    <polyline style="fill: none; stroke-opacity: 1; stroke-width: 4; stroke: #000000" points="1020,80 1020,80 1020,540 780,540 "/>
    <line style="fill: none; stroke-opacity: 1; stroke-width: 4; stroke: #000000" x1="1020" y1="80" x2="780" y2="80"/>
    <line style="fill: none; stroke-opacity: 1; stroke-width: 4; stroke: #000000" x1="980" y1="200" x2="780" y2="200"/>
    <ellipse style="fill: #000000; fill-opacity: 1; stroke-opacity: 1; stroke-width: 6; stroke: #000000" cx="1060" cy="180" rx="5" ry="5"/>
    <polyline style="fill: none; stroke-opacity: 1; stroke-width: 4; stroke: #000000" points="1060,180 1060,640 780,640 780,640 "/>
    <ellipse style="fill: #000000; fill-opacity: 1; stroke-opacity: 1; stroke-width: 6; stroke: #000000" cx="1100" cy="60" rx="5" ry="5"/>
    <polyline style="fill: none; stroke-opacity: 1; stroke-width: 4; stroke: #000000" points="1100,60 1100,520 780,520 "/>
    <line style="fill: none; stroke-opacity: 1; stroke-width: 4; stroke: #000000" x1="1100" y1="60" x2="780" y2="60"/>
    <line style="fill: none; stroke-opacity: 1; stroke-width: 4; stroke: #000000" x1="1060" y1="180" x2="780" y2="180"/>
    <ellipse style="fill: #000000; fill-opacity: 1; stroke-opacity: 1; stroke-width: 6; stroke: #000000" cx="820" cy="700" rx="5" ry="5"/>
    <polyline style="fill: none; stroke-opacity: 1; stroke-width: 4; stroke: #000000" points="820,700 820,780 780,780 780,780 "/>
    <ellipse style="fill: #000000; fill-opacity: 1; stroke-opacity: 1; stroke-width: 6; stroke: #000000" cx="860" cy="580" rx="5" ry="5"/>
    <polyline style="fill: none; stroke-opacity: 1; stroke-width: 4; stroke: #000000" points="860,580 860,860 780,860 "/>
    <line style="fill: none; stroke-opacity: 1; stroke-width: 4; stroke: #000000" x1="860" y1="580" x2="780" y2="580"/>
    <line style="fill: none; stroke-opacity: 1; stroke-width: 4; stroke: #000000" x1="820" y1="700" x2="780" y2="700"/>
    <polyline style="fill: none; stroke-opacity: 1; stroke-width: 4; stroke: #000000" points="900,320 900,680 780,680 780,680 "/>
    <polyline style="fill: none; stroke-opacity: 1; stroke-width: 4; stroke: #000000" points="940,400 940,560 780,560 780,560 "/>
    <ellipse style="fill: #000000; fill-opacity: 1; stroke-opacity: 1; stroke-width: 6; stroke: #000000" cx="980" cy="-140" rx="5" ry="5"/>
    <polyline style="fill: none; stroke-opacity: 1; stroke-width: 4; stroke: #000000" points="780,-140 800,-140 800,-140 980,-140 "/>
    <ellipse style="fill: #000000; fill-opacity: 1; stroke-opacity: 1; stroke-width: 6; stroke: #000000" cx="1020" cy="-60" rx="5" ry="5"/>
    <polyline style="fill: none; stroke-opacity: 1; stroke-width: 4; stroke: #000000" points="780,-60 840,-60 840,-60 1020,-60 "/>
    <g>
      <polygon style="fill: none; stroke-opacity: 1; stroke-width: 2; stroke: #000000" points="580,-160 640,-120 640,-80 580,-40 580,-80 595,-100 580,-120 "/>
      <text font-size="12.8" style="fill: #000000; fill-opacity: 1; stroke: none;text-anchor:middle;font-family:sans-serif;font-style:normal;font-weight:normal" x="617.5" y="-96">
        <tspan x="617.5" y="-96">ALU</tspan>
      </text>
    </g>
    <g>
      <polygon style="fill: none; stroke-opacity: 1; stroke-width: 2; stroke: #000000" points="700,-180 780,-180 780,-20 700,-20 "/>
      <line style="fill: none; stroke-opacity: 1; stroke-width: 2; stroke: #000000" x1="724" y1="-20" x2="740" y2="-52"/>
      <line style="fill: none; stroke-opacity: 1; stroke-width: 2; stroke: #000000" x1="740" y1="-52" x2="756" y2="-20"/>
      <text font-size="12.8" style="fill: #000000; fill-opacity: 1; stroke: none;text-anchor:middle;font-family:sans-serif;font-style:normal;font-weight:normal" x="740" y="-128">
        <tspan x="740" y="-128">Register</tspan>
        <tspan x="740" y="-112">File</tspan>
        <tspan x="740" y="-96">R0x40-70</tspan>
      </text>
    </g>
    <line style="fill: none; stroke-opacity: 1; stroke-width: 4; stroke: #000000" x1="640" y1="-100" x2="700" y2="-100"/>
    <g>
      <polygon style="fill: none; stroke-opacity: 1; stroke-width: 2; stroke: #000000" points="780,-300 720,-275 720,-225 780,-200 "/>
      <text font-size="12.8" style="fill: #000000; fill-opacity: 1; stroke: none;text-anchor:middle;font-family:sans-serif;font-style:normal;font-weight:normal" x="750" y="-246">
        <tspan x="750" y="-246">Src 1</tspan>
      </text>
    </g>
    <g>
      <polygon style="fill: none; stroke-opacity: 1; stroke-width: 2; stroke: #000000" points="780,-420 720,-395 720,-345 780,-320 "/>
      <text font-size="12.8" style="fill: #000000; fill-opacity: 1; stroke: none;text-anchor:middle;font-family:sans-serif;font-style:normal;font-weight:normal" x="750" y="-366">
        <tspan x="750" y="-366">Src 2</tspan>
      </text>
    </g>
    <polyline style="fill: none; stroke-opacity: 1; stroke-width: 4; stroke: #000000" points="720,-370 520,-370 520,-60 580,-60 "/>
    <polyline style="fill: none; stroke-opacity: 1; stroke-width: 4; stroke: #000000" points="580,-140 560,-140 560,-250 720,-250 "/>
    <ellipse style="fill: #000000; fill-opacity: 1; stroke-opacity: 1; stroke-width: 6; stroke: #000000" cx="900" cy="-240" rx="5" ry="5"/>
    <ellipse style="fill: #000000; fill-opacity: 1; stroke-opacity: 1; stroke-width: 6; stroke: #000000" cx="940" cy="-360" rx="5" ry="5"/>
    <line style="fill: none; stroke-opacity: 1; stroke-width: 4; stroke: #000000" x1="940" y1="-360" x2="780" y2="-360"/>
    <line style="fill: none; stroke-opacity: 1; stroke-width: 4; stroke: #000000" x1="900" y1="-240" x2="780" y2="-240"/>
    <ellipse style="fill: #000000; fill-opacity: 1; stroke-opacity: 1; stroke-width: 6; stroke: #000000" cx="820" cy="-220" rx="5" ry="5"/>
    <line style="fill: none; stroke-opacity: 1; stroke-width: 4; stroke: #000000" x1="820" y1="-220" x2="820" y2="240"/>
    <ellipse style="fill: #000000; fill-opacity: 1; stroke-opacity: 1; stroke-width: 6; stroke: #000000" cx="860" cy="-340" rx="5" ry="5"/>
    <polyline style="fill: none; stroke-opacity: 1; stroke-width: 4; stroke: #000000" points="860,-340 860,120 860,120 "/>
    <line style="fill: none; stroke-opacity: 1; stroke-width: 4; stroke: #000000" x1="860" y1="-340" x2="780" y2="-340"/>
    <line style="fill: none; stroke-opacity: 1; stroke-width: 4; stroke: #000000" x1="820" y1="-220" x2="780" y2="-220"/>
    <ellipse style="fill: #000000; fill-opacity: 1; stroke-opacity: 1; stroke-width: 6; stroke: #000000" cx="980" cy="-260" rx="5" ry="5"/>
    <line style="fill: none; stroke-opacity: 1; stroke-width: 4; stroke: #000000" x1="980" y1="-260" x2="980" y2="200"/>
    <ellipse style="fill: #000000; fill-opacity: 1; stroke-opacity: 1; stroke-width: 6; stroke: #000000" cx="1020" cy="-380" rx="5" ry="5"/>
    <polyline style="fill: none; stroke-opacity: 1; stroke-width: 4; stroke: #000000" points="1020,-380 1020,80 1020,80 "/>
    <line style="fill: none; stroke-opacity: 1; stroke-width: 4; stroke: #000000" x1="1020" y1="-380" x2="780" y2="-380"/>
    <line style="fill: none; stroke-opacity: 1; stroke-width: 4; stroke: #000000" x1="980" y1="-260" x2="780" y2="-260"/>
    <ellipse style="fill: #000000; fill-opacity: 1; stroke-opacity: 1; stroke-width: 6; stroke: #000000" cx="1060" cy="-280" rx="5" ry="5"/>
    <line style="fill: none; stroke-opacity: 1; stroke-width: 4; stroke: #000000" x1="1060" y1="-280" x2="1060" y2="180"/>
    <ellipse style="fill: #000000; fill-opacity: 1; stroke-opacity: 1; stroke-width: 6; stroke: #000000" cx="1100" cy="-400" rx="5" ry="5"/>
    <polyline style="fill: none; stroke-opacity: 1; stroke-width: 4; stroke: #000000" points="1100,-400 1100,60 1100,60 "/>
    <line style="fill: none; stroke-opacity: 1; stroke-width: 4; stroke: #000000" x1="1100" y1="-400" x2="780" y2="-400"/>
    <line style="fill: none; stroke-opacity: 1; stroke-width: 4; stroke: #000000" x1="1060" y1="-280" x2="780" y2="-280"/>
    <line style="fill: none; stroke-opacity: 1; stroke-width: 4; stroke: #000000" x1="900" y1="-240" x2="900" y2="220"/>
    <line style="fill: none; stroke-opacity: 1; stroke-width: 4; stroke: #000000" x1="940" y1="-360" x2="940" y2="100"/>
    <ellipse style="fill: #000000; fill-opacity: 1; stroke-opacity: 1; stroke-width: 6; stroke: #000000" cx="1060" cy="-600" rx="5" ry="5"/>
    <polyline style="fill: none; stroke-opacity: 1; stroke-width: 4; stroke: #000000" points="780,-600 800,-600 800,-600 1060,-600 "/>
    <ellipse style="fill: #000000; fill-opacity: 1; stroke-opacity: 1; stroke-width: 6; stroke: #000000" cx="1100" cy="-520" rx="5" ry="5"/>
    <polyline style="fill: none; stroke-opacity: 1; stroke-width: 4; stroke: #000000" points="780,-520 840,-520 840,-520 1100,-520 "/>
    <g>
      <polygon style="fill: none; stroke-opacity: 1; stroke-width: 2; stroke: #000000" points="580,-620 640,-580 640,-540 580,-500 580,-540 595,-560 580,-580 "/>
      <text font-size="12.8" style="fill: #000000; fill-opacity: 1; stroke: none;text-anchor:middle;font-family:sans-serif;font-style:normal;font-weight:normal" x="617.5" y="-556">
        <tspan x="617.5" y="-556">ALU</tspan>
      </text>
    </g>
    <g>
      <polygon style="fill: none; stroke-opacity: 1; stroke-width: 2; stroke: #000000" points="700,-640 780,-640 780,-480 700,-480 "/>
      <line style="fill: none; stroke-opacity: 1; stroke-width: 2; stroke: #000000" x1="724" y1="-480" x2="740" y2="-512"/>
      <line style="fill: none; stroke-opacity: 1; stroke-width: 2; stroke: #000000" x1="740" y1="-512" x2="756" y2="-480"/>
      <text font-size="12.8" style="fill: #000000; fill-opacity: 1; stroke: none;text-anchor:middle;font-family:sans-serif;font-style:normal;font-weight:normal" x="740" y="-588">
        <tspan x="740" y="-588">Register</tspan>
        <tspan x="740" y="-572">File</tspan>
        <tspan x="740" y="-556">0x0-30</tspan>
      </text>
    </g>
    <line style="fill: none; stroke-opacity: 1; stroke-width: 4; stroke: #000000" x1="640" y1="-560" x2="700" y2="-560"/>
    <g>
      <polygon style="fill: none; stroke-opacity: 1; stroke-width: 2; stroke: #000000" points="780,-760 720,-735 720,-685 780,-660 "/>
      <text font-size="12.8" style="fill: #000000; fill-opacity: 1; stroke: none;text-anchor:middle;font-family:sans-serif;font-style:normal;font-weight:normal" x="750" y="-706">
        <tspan x="750" y="-706">Src 1</tspan>
      </text>
    </g>
    <g>
      <polygon style="fill: none; stroke-opacity: 1; stroke-width: 2; stroke: #000000" points="780,-880 720,-855 720,-805 780,-780 "/>
      <text font-size="12.8" style="fill: #000000; fill-opacity: 1; stroke: none;text-anchor:middle;font-family:sans-serif;font-style:normal;font-weight:normal" x="750" y="-826">
        <tspan x="750" y="-826">Src 2</tspan>
      </text>
    </g>
    <polyline style="fill: none; stroke-opacity: 1; stroke-width: 4; stroke: #000000" points="720,-830 520,-830 520,-520 580,-520 "/>
    <polyline style="fill: none; stroke-opacity: 1; stroke-width: 4; stroke: #000000" points="580,-600 560,-600 560,-710 720,-710 "/>
    <polyline style="fill: none; stroke-opacity: 1; stroke-width: 4; stroke: #000000" points="780,-680 780,-680 820,-680 820,-220 "/>
    <polyline style="fill: none; stroke-opacity: 1; stroke-width: 4; stroke: #000000" points="780,-800 860,-800 860,-340 860,-340 "/>
    <polyline style="fill: none; stroke-opacity: 1; stroke-width: 4; stroke: #000000" points="780,-720 780,-720 980,-720 980,-260 "/>
    <polyline style="fill: none; stroke-opacity: 1; stroke-width: 4; stroke: #000000" points="780,-840 1020,-840 1020,-380 1020,-380 "/>
    <line style="fill: none; stroke-opacity: 1; stroke-width: 4; stroke: #000000" x1="1060" y1="-600" x2="1060" y2="-280"/>
    <polyline style="fill: none; stroke-opacity: 1; stroke-width: 4; stroke: #000000" points="1100,-520 1100,-400 1100,-400 "/>
    <polyline style="fill: none; stroke-opacity: 1; stroke-width: 4; stroke: #000000" points="1100,-520 1100,-520 1100,-860 780,-860 "/>
    <polyline style="fill: none; stroke-opacity: 1; stroke-width: 4; stroke: #000000" points="1060,-600 1060,-740 780,-740 780,-740 "/>
    <polyline style="fill: none; stroke-opacity: 1; stroke-width: 4; stroke: #000000" points="780,-700 780,-700 900,-700 900,-240 "/>
    <polyline style="fill: none; stroke-opacity: 1; stroke-width: 4; stroke: #000000" points="780,-820 780,-820 940,-820 940,-360 "/>
  </g>
</svg>
